<svg width="24" height="24" viewBox="0 0 24 24" fill="none" xmlns="http://www.w3.org/2000/svg">
<path d="M8.90999 20.67C8.71999 20.67 8.52999 20.6 8.37999 20.45C8.24051 20.3089 8.16229 20.1184 8.16229 19.92C8.16229 19.7216 8.24051 19.5312 8.37999 19.39L14.9 12.87C15.38 12.39 15.38 11.61 14.9 11.13L8.37999 4.61002C8.24051 4.46888 8.16229 4.27845 8.16229 4.08002C8.16229 3.88159 8.24051 3.69116 8.37999 3.55002C8.66999 3.26002 9.14999 3.26002 9.43999 3.55002L15.96 10.07C16.47 10.58 16.76 11.27 16.76 12C16.76 12.73 16.48 13.42 15.96 13.93L9.43999 20.45C9.28999 20.59 9.09999 20.67 8.90999 20.67Z" fill="black"/>
</svg>
