<svg width="24" height="24" viewBox="0 0 24 24" fill="none" xmlns="http://www.w3.org/2000/svg">
<path d="M15.1299 19.06H7.12988C6.71988 19.06 6.37988 18.72 6.37988 18.31C6.37988 17.9 6.71988 17.56 7.12988 17.56H15.1299C16.2562 17.5574 17.3357 17.1087 18.1322 16.3123C18.9286 15.5158 19.3772 14.4364 19.3799 13.31C19.3772 12.1836 18.9286 11.1042 18.1322 10.3077C17.3357 9.51125 16.2562 9.06264 15.1299 9.06H4.12988C3.71988 9.06 3.37988 8.72 3.37988 8.31C3.37988 7.9 3.71988 7.56 4.12988 7.56H15.1299C18.2999 7.56 20.8799 10.14 20.8799 13.31C20.8799 16.48 18.2999 19.06 15.1299 19.06Z" fill="black"/>
<path d="M6.43002 11.56C6.24002 11.56 6.05002 11.49 5.90002 11.34L3.34002 8.78C3.20054 8.63887 3.12231 8.44844 3.12231 8.25001C3.12231 8.05157 3.20054 7.86114 3.34002 7.72L5.90002 5.16C6.19002 4.87 6.67002 4.87 6.96002 5.16C7.25002 5.45 7.25002 5.93 6.96002 6.22L4.93002 8.25001L6.96002 10.28C7.25002 10.57 7.25002 11.05 6.96002 11.34C6.82002 11.49 6.62002 11.56 6.43002 11.56Z" fill="black"/>
</svg>
