<svg width="24" height="24" viewBox="0 0 24 24" fill="none" xmlns="http://www.w3.org/2000/svg">
<path d="M15 22.75H9C3.57 22.75 1.25 20.43 1.25 15V9C1.25 3.57 3.57 1.25 9 1.25H11C11.41 1.25 11.75 1.59 11.75 2C11.75 2.41 11.41 2.75 11 2.75H9C4.39 2.75 2.75 4.39 2.75 9V15C2.75 19.61 4.39 21.25 9 21.25H15C19.61 21.25 21.25 19.61 21.25 15V13C21.25 12.59 21.59 12.25 22 12.25C22.41 12.25 22.75 12.59 22.75 13V15C22.75 20.43 20.43 22.75 15 22.75Z" fill="black"/>
<path d="M8.50002 17.689C7.89002 17.689 7.33002 17.469 6.92002 17.069C6.43002 16.579 6.22002 15.869 6.33002 15.119L6.76002 12.109C6.84002 11.529 7.22002 10.779 7.63002 10.369L15.51 2.48902C17.5 0.499021 19.52 0.499021 21.51 2.48902C22.6 3.57902 23.09 4.68902 22.99 5.79902C22.9 6.69902 22.42 7.57902 21.51 8.47902L13.63 16.359C13.22 16.769 12.47 17.149 11.89 17.229L8.88002 17.659C8.75002 17.689 8.62002 17.689 8.50002 17.689ZM16.57 3.54902L8.69002 11.429C8.50002 11.619 8.28002 12.059 8.24002 12.319L7.81002 15.329C7.77002 15.619 7.83002 15.859 7.98002 16.009C8.13002 16.159 8.37002 16.219 8.66002 16.179L11.67 15.749C11.93 15.709 12.38 15.489 12.56 15.299L20.44 7.41902C21.09 6.76902 21.43 6.18902 21.48 5.64902C21.54 4.99902 21.2 4.30902 20.44 3.53902C18.84 1.93902 17.74 2.38902 16.57 3.54902Z" fill="black"/>
<path d="M19.85 9.83003C19.78 9.83003 19.71 9.82003 19.65 9.80003C18.3504 9.42998 17.1668 8.73425 16.2113 7.77875C15.2558 6.82326 14.5601 5.63964 14.19 4.34003C14.1374 4.14779 14.1625 3.94259 14.2597 3.76864C14.357 3.59469 14.5187 3.4659 14.71 3.41003C15.11 3.30003 15.52 3.53003 15.63 3.93003C16.23 6.06003 17.92 7.75003 20.05 8.35003C20.45 8.46003 20.68 8.88003 20.57 9.28003C20.48 9.62003 20.18 9.83003 19.85 9.83003Z" fill="black"/>
</svg>
