<svg width="24" height="24" viewBox="0 0 24 24" fill="none" xmlns="http://www.w3.org/2000/svg">
<path d="M12.3299 12.15L9.85993 14.62C9.53429 14.9446 9.27593 15.3304 9.09964 15.7551C8.92335 16.1798 8.8326 16.6351 8.8326 17.095C8.8326 17.5548 8.92335 18.0101 9.09964 18.4348C9.27593 18.8596 9.53429 19.2453 9.85993 19.57C10.1846 19.8956 10.5704 20.154 10.9951 20.3303C11.4198 20.5066 11.8751 20.5973 12.3349 20.5973C12.7948 20.5973 13.2501 20.5066 13.6748 20.3303C14.0995 20.154 14.4853 19.8956 14.8099 19.57L18.6999 15.68C20.0111 14.3663 20.7475 12.586 20.7475 10.73C20.7475 8.8739 20.0111 7.09365 18.6999 5.77997C17.3862 4.46877 15.606 3.73236 13.7499 3.73236C11.8939 3.73236 10.1136 4.46877 8.79993 5.77997L4.55993 10.02C2.21993 12.36 2.21993 16.16 4.55993 18.51" stroke="black" stroke-width="1.5" stroke-linecap="round" stroke-linejoin="round"/>
</svg>
