<svg width="433" height="409" viewBox="0 0 433 409" fill="none" xmlns="http://www.w3.org/2000/svg">
<path d="M0 216.304C0 96.8426 96.8428 0 216.304 0V0C335.766 0 432.609 96.8427 432.609 216.304V314.086H0V216.304Z" fill="#399AD3"/>
<path d="M0 266.677H106.671V355.569C106.671 385.025 82.7916 408.904 53.3353 408.904V408.904C23.879 408.904 0 385.025 0 355.569V266.677Z" fill="#399AD3"/>
<path d="M106.671 266.677H213.341V355.569C213.341 385.025 189.462 408.904 160.006 408.904V408.904C130.55 408.904 106.671 385.025 106.671 355.569V266.677Z" fill="#399AD3"/>
<path d="M213.341 266.677H325.938V352.606C325.938 383.699 300.732 408.904 269.64 408.904V408.904C238.547 408.904 213.341 383.699 213.341 352.606V266.677Z" fill="#399AD3"/>
<path d="M325.938 266.677H432.609V355.569C432.609 385.025 408.73 408.904 379.273 408.904V408.904C349.817 408.904 325.938 385.025 325.938 355.569V266.677Z" fill="#399AD3"/>
<path d="M39.8047 209.88C39.8047 181.901 62.4862 159.219 90.4654 159.219H91.6735C119.653 159.219 142.334 181.901 142.334 209.88V209.88C142.334 237.859 119.653 260.54 91.6735 260.54H90.4653C62.4862 260.54 39.8047 237.859 39.8047 209.88V209.88Z" fill="white"/>
<rect x="55.9934" y="169.885" width="80.9443" height="79.9905" rx="39.9953" fill="#399AD3"/>
<rect x="55.9934" y="175.217" width="24.2833" height="23.9972" rx="11.9986" fill="white"/>
<path d="M287.079 209.88C287.079 181.901 309.76 159.219 337.739 159.219H338.948C366.927 159.219 389.608 181.901 389.608 209.88V209.88C389.608 237.859 366.927 260.54 338.948 260.54H337.739C309.76 260.54 287.079 237.859 287.079 209.88V209.88Z" fill="white"/>
<rect x="292.475" y="169.885" width="80.9443" height="79.9905" rx="39.9953" fill="#399AD3"/>
<rect x="295.173" y="175.217" width="24.2833" height="23.9972" rx="11.9986" fill="white"/>
<path d="M148.153 225.194H278.529V225.194C278.529 257.923 251.996 284.455 219.267 284.455H207.415C174.686 284.455 148.153 257.923 148.153 225.194V225.194Z" fill="white"/>
</svg>
