<svg width="322" height="181" viewBox="0 0 322 181" fill="none" xmlns="http://www.w3.org/2000/svg">
<path fill-rule="evenodd" clip-rule="evenodd" d="M90.5 28H231.5C266.018 28 294 55.9822 294 90.5C294 125.018 266.018 153 231.5 153H90.5C55.9822 153 28 125.018 28 90.5C28 55.9822 55.9822 28 90.5 28ZM0 90.5C0 40.5182 40.5182 0 90.5 0H231.5C281.482 0 322 40.5182 322 90.5C322 140.482 281.482 181 231.5 181H90.5C40.5182 181 0 140.482 0 90.5ZM58 75C49.7157 75 43 81.7157 43 90C43 98.2843 49.7157 105 58 105H140C148.284 105 155 98.2843 155 90C155 81.7157 148.284 75 140 75H58Z" fill="#399AD3"/>
</svg>
