<svg width="24" height="24" viewBox="0 0 24 24" fill="none" xmlns="http://www.w3.org/2000/svg">
<path d="M21.529 15.93C21.369 15.66 20.919 15.24 19.799 15.44C19.179 15.55 18.549 15.6 17.919 15.57C16.7954 15.519 15.6934 15.2432 14.6782 14.7588C13.6631 14.2745 12.7554 13.5914 12.009 12.75C10.709 11.3 9.90898 9.40999 9.89898 7.36999C9.89898 6.22999 10.119 5.12999 10.569 4.08999C11.009 3.07999 10.699 2.54999 10.479 2.32999C10.249 2.09999 9.70898 1.77999 8.64898 2.21999C4.55898 3.93999 2.02898 8.03999 2.32898 12.43C2.62898 16.56 5.52898 20.09 9.36898 21.42C10.2999 21.7448 11.2738 21.9301 12.259 21.97C12.419 21.98 12.579 21.99 12.739 21.99C16.089 21.99 19.229 20.41 21.209 17.72C21.879 16.79 21.699 16.2 21.529 15.93Z" fill="black"/>
</svg>
