<svg width="24" height="24" viewBox="0 0 24 24" fill="none" xmlns="http://www.w3.org/2000/svg">
<path d="M5 14.75C3.48 14.75 2.25 13.52 2.25 12C2.25 10.48 3.48 9.25 5 9.25C6.52 9.25 7.75 10.48 7.75 12C7.75 13.52 6.52 14.75 5 14.75ZM5 10.75C4.66848 10.75 4.35054 10.8817 4.11612 11.1161C3.8817 11.3505 3.75 11.6685 3.75 12C3.75 12.3315 3.8817 12.6495 4.11612 12.8839C4.35054 13.1183 4.66848 13.25 5 13.25C5.33152 13.25 5.64946 13.1183 5.88388 12.8839C6.1183 12.6495 6.25 12.3315 6.25 12C6.25 11.6685 6.1183 11.3505 5.88388 11.1161C5.64946 10.8817 5.33152 10.75 5 10.75ZM19 14.75C17.48 14.75 16.25 13.52 16.25 12C16.25 10.48 17.48 9.25 19 9.25C20.52 9.25 21.75 10.48 21.75 12C21.75 13.52 20.52 14.75 19 14.75ZM19 10.75C18.6685 10.75 18.3505 10.8817 18.1161 11.1161C17.8817 11.3505 17.75 11.6685 17.75 12C17.75 12.3315 17.8817 12.6495 18.1161 12.8839C18.3505 13.1183 18.6685 13.25 19 13.25C19.3315 13.25 19.6495 13.1183 19.8839 12.8839C20.1183 12.6495 20.25 12.3315 20.25 12C20.25 11.6685 20.1183 11.3505 19.8839 11.1161C19.6495 10.8817 19.3315 10.75 19 10.75ZM12 14.75C10.48 14.75 9.25 13.52 9.25 12C9.25 10.48 10.48 9.25 12 9.25C13.52 9.25 14.75 10.48 14.75 12C14.75 13.52 13.52 14.75 12 14.75ZM12 10.75C11.6685 10.75 11.3505 10.8817 11.1161 11.1161C10.8817 11.3505 10.75 11.6685 10.75 12C10.75 12.3315 10.8817 12.6495 11.1161 12.8839C11.3505 13.1183 11.6685 13.25 12 13.25C12.3315 13.25 12.6495 13.1183 12.8839 12.8839C13.1183 12.6495 13.25 12.3315 13.25 12C13.25 11.6685 13.1183 11.3505 12.8839 11.1161C12.6495 10.8817 12.3315 10.75 12 10.75Z" fill="black"/>
</svg>
