<svg width="24" height="24" viewBox="0 0 24 24" fill="none" xmlns="http://www.w3.org/2000/svg">
<path d="M20.19 14.06L19.06 12.18C18.81 11.77 18.59 10.98 18.59 10.5V8.62999C18.59 4.99999 15.64 2.04999 12.02 2.04999C8.39002 2.05999 5.44002 4.99999 5.44002 8.62999V10.49C5.44002 10.97 5.22002 11.76 4.98002 12.17L3.85002 14.05C3.42002 14.78 3.32002 15.61 3.59002 16.33C3.86002 17.06 4.47002 17.64 5.27002 17.9C6.35002 18.26 7.44002 18.52 8.55002 18.71C8.66002 18.73 8.77002 18.74 8.88002 18.76L9.32002 18.82C9.58002 18.86 9.84002 18.89 10.11 18.91C11.3706 19.0288 12.6395 19.0288 13.9 18.91C14.13 18.89 14.36 18.87 14.58 18.84C14.76 18.82 14.94 18.8 15.12 18.77C15.23 18.76 15.34 18.74 15.45 18.72C16.57 18.54 17.68 18.26 18.76 17.9C19.1336 17.7751 19.4747 17.5685 19.7584 17.2951C20.0421 17.0218 20.2613 16.6887 20.4 16.32C20.68 15.57 20.6 14.75 20.19 14.06ZM12.75 9.99999C12.75 10.2016 12.6699 10.3949 12.5274 10.5374C12.3849 10.6799 12.1916 10.76 11.99 10.76C11.7885 10.76 11.5951 10.6799 11.4526 10.5374C11.3101 10.3949 11.23 10.2016 11.23 9.99999V6.89999C11.23 6.69842 11.3101 6.50511 11.4526 6.36259C11.5951 6.22006 11.7885 6.13999 11.99 6.13999C12.1916 6.13999 12.3849 6.22006 12.5274 6.36259C12.6699 6.50511 12.75 6.69842 12.75 6.89999V9.99999ZM14.83 20.01C14.6197 20.5921 14.2353 21.0954 13.729 21.4515C13.2227 21.8075 12.619 21.999 12 22C11.21 22 10.43 21.68 9.88002 21.11C9.56002 20.81 9.32002 20.41 9.18002 20C9.31002 20.02 9.44002 20.03 9.58002 20.05C9.81002 20.08 10.05 20.11 10.29 20.13C10.86 20.18 11.44 20.21 12.02 20.21C12.59 20.21 13.16 20.18 13.72 20.13C13.93 20.11 14.14 20.1 14.34 20.07L14.83 20.01Z" fill="black"/>
</svg>
