<svg width="24" height="24" viewBox="0 0 24 24" fill="none" xmlns="http://www.w3.org/2000/svg">
<path d="M18.94 5.42101L13.77 2.43101C12.78 1.86101 11.23 1.86101 10.24 2.43101L5.02002 5.44101C2.95002 6.84101 2.83002 7.05101 2.83002 9.28101V14.711C2.83002 16.941 2.95002 17.161 5.06002 18.581L10.23 21.571C10.73 21.861 11.37 22.001 12 22.001C12.63 22.001 13.27 21.861 13.76 21.571L18.98 18.561C21.05 17.161 21.17 16.951 21.17 14.721V9.28101C21.17 7.05101 21.05 6.84101 18.94 5.42101ZM12 15.251C10.21 15.251 8.75002 13.791 8.75002 12.001C8.75002 10.211 10.21 8.75101 12 8.75101C13.79 8.75101 15.25 10.211 15.25 12.001C15.25 13.791 13.79 15.251 12 15.251Z" fill="black"/>
</svg>
