<svg width="24" height="24" viewBox="0 0 24 24" fill="none" xmlns="http://www.w3.org/2000/svg">
<path d="M21.07 5.23C19.46 5.07 17.85 4.95 16.23 4.86V4.85L16.01 3.55C15.86 2.63 15.64 1.25 13.3 1.25H10.68C8.34997 1.25 8.12997 2.57 7.96997 3.54L7.75997 4.82C6.82997 4.88 5.89997 4.94 4.96997 5.03L2.92997 5.23C2.50997 5.27 2.20997 5.64 2.24997 6.05C2.28997 6.46 2.64997 6.76 3.06997 6.72L5.10997 6.52C10.35 6 15.63 6.2 20.93 6.73H21.01C21.39 6.73 21.72 6.44 21.76 6.05C21.775 5.85024 21.7112 5.65253 21.5822 5.49925C21.4533 5.34596 21.2694 5.24931 21.07 5.23ZM19.23 8.14C18.99 7.89 18.66 7.75 18.32 7.75H5.67997C5.33997 7.75 4.99997 7.89 4.76997 8.14C4.53997 8.39 4.40997 8.73 4.42997 9.08L5.04997 19.34C5.15997 20.86 5.29997 22.76 8.78997 22.76H15.21C18.7 22.76 18.84 20.87 18.95 19.34L19.57 9.09C19.59 8.73 19.46 8.39 19.23 8.14ZM13.66 17.75H10.33C9.91997 17.75 9.57997 17.41 9.57997 17C9.57997 16.59 9.91997 16.25 10.33 16.25H13.66C14.07 16.25 14.41 16.59 14.41 17C14.41 17.41 14.07 17.75 13.66 17.75ZM14.5 13.75H9.49997C9.08997 13.75 8.74997 13.41 8.74997 13C8.74997 12.59 9.08997 12.25 9.49997 12.25H14.5C14.91 12.25 15.25 12.59 15.25 13C15.25 13.41 14.91 13.75 14.5 13.75Z" fill="black"/>
</svg>
